<svg xmlns="http://www.w3.org/2000/svg" width="1200" height="720" viewBox="0 0 1200 720" role="img" aria-label="Study Desk cover">
  <defs>
    <linearGradient id="bg" x1="0" y1="0" x2="1" y2="1">
      <stop offset="0" stop-color="#ecf1e8"/>
      <stop offset="1" stop-color="#dfe8dc"/>
    </linearGradient>
    <linearGradient id="dark" x1="0" y1="0" x2="1" y2="1">
      <stop offset="0" stop-color="#1f2a22"/>
      <stop offset="1" stop-color="#314235"/>
    </linearGradient>
  </defs>
  <rect width="1200" height="720" fill="url(#bg)"/>
  <rect x="96" y="82" width="1008" height="556" rx="38" fill="#f8faf5" stroke="#cfd9cb" stroke-width="4"/>
  <rect x="144" y="132" width="252" height="430" rx="20" fill="#eef4ec" stroke="#d6dfd2" stroke-width="3"/>
  <rect x="438" y="132" width="618" height="118" rx="20" fill="url(#dark)"/>
  <rect x="438" y="284" width="286" height="278" rx="20" fill="#ffffff" stroke="#d6dfd2" stroke-width="3"/>
  <rect x="770" y="284" width="286" height="278" rx="20" fill="#ffffff" stroke="#d6dfd2" stroke-width="3"/>
  <g fill="none" stroke="#6f8a6f" stroke-width="18" stroke-linecap="round">
    <path d="M184 202h168"/>
    <path d="M184 274h136"/>
    <path d="M184 346h156"/>
    <path d="M184 418h118"/>
  </g>
  <g fill="#7aa36f">
    <circle cx="500" cy="360" r="22"/>
    <circle cx="500" cy="432" r="22"/>
    <circle cx="500" cy="504" r="22"/>
  </g>
  <g fill="none" stroke="#314235" stroke-width="16" stroke-linecap="round">
    <path d="M550 360h118"/>
    <path d="M550 432h88"/>
    <path d="M550 504h134"/>
  </g>
  <g fill="none" stroke="#b88a56" stroke-width="16" stroke-linecap="round">
    <path d="M838 360h136"/>
    <path d="M838 432h88"/>
    <path d="M838 504h120"/>
  </g>
  <path d="M485 191h188" stroke="#f8faf5" stroke-width="18" stroke-linecap="round"/>
  <path d="M485 215h312" stroke="#cdddc9" stroke-width="12" stroke-linecap="round" opacity=".75"/>
  <circle cx="986" cy="190" r="34" fill="#7aa36f"/>
  <path d="M972 190l11 12 23-29" fill="none" stroke="#fff" stroke-width="10" stroke-linecap="round" stroke-linejoin="round"/>
</svg>
